# xmcd
#
# Track frame offsets: 
#        150
#        14353
#        29979
#        45171
#        58479
#        81491
#        94681
#
# Disc length: 1280 seconds
#
# Revision: 0
# Processed by: cddbd v1.5.2PL0 Copyright (c) Steve Scherf et al.
# Submitted via: ExactAudioCopy v0.95b4
#
DISCID=5b04fe07
DTITLE=Leslie Overdrive - With the Hammond, in the beauty
DYEAR=2007
DGENRE=Blues
TTITLE0=Hotpies Popcorn
TTITLE1=Drive my car
TTITLE2=Juicy
TTITLE3=Walk this way
TTITLE4=The chicken
TTITLE5=The Hen
TTITLE6=With the Hammond, in the beauty
EXTD=
EXTT0=
EXTT1=
EXTT2=
EXTT3=
EXTT4=
EXTT5=
EXTT6=
PLAYORDER=
